<svg xmlns="http://www.w3.org/2000/svg" xmlns:xlink="http://www.w3.org/1999/xlink" id="Layer_1" x="0px" y="0px" viewBox="0 0 1080 1080" style="enable-background:new 0 0 1080 1080;" xml:space="preserve"><style type="text/css">	.st0{fill:#FFFFFF;}</style><g>	<g>		<path class="st0" d="M597,529.1c9.1-4.9,18.3-9.4,27.2-14.7c29.7-17.6,59.3-35.3,88.9-53.1c31.7-19,63.4-38.1,95-57.2   c2.2-1.3,4.3-3,6.3-4.7c18.4-15.8,37.5-30.7,57.6-44.1c6.1-4,13-2.1,16.1,4.7c0.5,1.2,0.3,3.3-0.4,4.3c-2.8,3.7-5.6,7.4-8.9,10.6   c-11.7,11.3-23.7,22.3-35.3,33.6c-12.4,12.1-24.6,24.4-36.6,36.8c-3.7,3.8-6.4,8.5-9.6,12.8c-0.5,0.7-0.8,1.5-1.5,2.7   c4.8-0.9,9-1.8,13.3-2.6c13.8-2.7,27.8-4.6,41.9-3.9c15.1,0.8,29.5,3.8,41.5,13.8c12.3,10.2,16.7,23,12.7,38.6   c-3.3,12.7-10.4,23.3-18.5,33.1c-17,20.6-37.2,37.6-59,52.9c-3,2.1-6,4.2-9.3,6.5c6.9,1.5,13.5,2.6,19.8,4.5   c9.5,2.8,19,5.9,28.2,9.6c7.2,2.9,13.4,7.4,18.3,13.7c3.1,4.1,3.9,8.4,2.2,13.3c-0.7,2-1.8,2.6-3.7,2.1c-4.6-1.2-7.5-4.9-7.2-9.5   c0.3-4-1.2-6.6-4.9-8.2c-8.8-3.9-18-6.2-27.4-7.8c-13-2.2-26.1-3.8-39.2-5.7c-3-0.4-5.5,0.2-8.1,1.8c-24.2,14.6-50.4,24.9-77,34.2   c-14,4.9-28.2,9.3-43,11.3c-15.8,2.2-31.4,2-46.1-5.4c-6.8-3.5-12.8-8-16.8-14.6c-3.9-6.5-3.4-12.7,1.3-18.7   c4.3-5.5,10-9.2,16.1-12.3c17.3-8.7,35.6-13.8,54.9-15.2c30.6-2.3,61.2-1.3,91.7,1.5c2.8,0.3,5.2-0.2,7.6-1.8   c25.8-16.1,50.4-33.8,71.9-55.4c8.1-8.1,15.6-16.8,21.8-26.4c4.3-6.7,7.7-13.7,8.8-21.7c0.2-1.4,0.3-2.8,0.3-4.2   c0-7.8-2.2-10.8-9.7-12.6c-11.3-2.8-22.7-3-34.1-1.3c-13.3,2-26.5,4.7-39.7,7.3c-11.7,2.3-21.2-1.1-28.9-10   c-3.7-4.3-4.9-9.3-3.8-14.9c1.3-6.8,4.7-12.6,8.5-18.1c0.6-0.8,1.2-1.7,1.5-3c-0.8,0.5-1.7,0.9-2.5,1.5   c-46.3,29.3-92.5,58.7-139,87.7c-14.4,9-29.5,17.1-44.5,25.1c-8.6,4.6-15.3,2.5-21.6-4.9c-2.8-3.3-3.4-7-2.8-11   c1.4-8.5,5.1-16.1,9.6-23.4c12.6-20.5,28.7-38.2,46.2-54.4c18.7-17.3,38.2-33.8,57.4-50.6c0.8-0.7,1.5-1.3,2.1-2.3   c-1.2,0.5-2.4,1-3.5,1.5c-30.7,14.1-62.2,26-94.9,34.9c-1.3,0.4-2.6,1.3-3.6,2.3c-27.8,27.6-56.3,54.4-86.4,79.5   c-31.7,26.5-64.6,51.4-98.9,74.3c-9.4,6.3-19.1,12.1-30.1,15.1c-11.8,3.2-27-7.4-27.4-19.5c-0.2-4.7,0.9-9.6,2.2-14.2   c3.8-13.3,11.1-24.8,19.1-35.9c0.7-1,1.5-2.1,1.8-3.5c-1.8,1.3-3.6,2.6-5.4,3.9c-28.7,21-57.3,42.2-86.3,62.7   c-9.6,6.8-20.3,12.3-30.7,18c-3,1.7-6.5,2.7-9.9,3.4c-13,2.6-24.2-9.3-21-22.1c1.7-6.8,4.9-12.9,8.5-18.8   c8.3-13.3,18.8-24.8,29.2-36.3c18.8-20.6,37.9-40.8,56.9-61.3c0.4-0.4,0.8-0.9,0.9-1.7c-1,0.6-2,1.2-3.1,1.8   c-30.1,17.8-60.1,35.8-90.3,53.4c-10.9,6.3-22.2,11.8-33.4,17.6c-2.6,1.4-4.4,0.6-7.2-3.1c1.6-1.4,3.2-3.2,5-4.3   c12.6-7.8,25.3-15.6,37.9-23.3c37.2-22.6,74.5-45,111.4-68c10.8-6.8,20.4-15.5,30.7-23.2c1.2-0.9,3.2-1.3,4.6-1   c5.9,1.4,10.5,4.9,13.6,10.3c1.5,2.5,0.8,5-0.8,7.1c-3.5,4.5-6.9,9-10.8,13.2c-16.1,17.1-32.6,33.9-48.6,51.1   c-24.1,25.8-48,51.8-71.9,77.8c-3.9,4.3-7.4,9-11.1,13.6c-0.6,0.8-1.1,1.7-1.3,3c2.3-1,4.6-1.9,6.8-3c16-7.8,30.9-17.4,45.6-27.4   c35.8-24.5,71.4-49.2,107-73.9c2-1.4,3.9-3,5.6-4.7c20.9-21.1,42.9-41.2,66.4-59.4c0.3-0.2,0.6-0.4,0.8-0.6c2.6-1.9,5-4.2,8.7-2.9   c4.5,1.5,8.1,4.1,10.3,8.4c1.1,2,0.5,4-1,5.6c-5.4,6.2-10.6,12.5-16.3,18.5C445.5,490.4,424.6,512,404,534   c-13.2,14.2-25,29.5-34.3,46.5c-1.2,2.2-2.3,4.5-3.2,7.2c0.9-0.4,2-0.7,2.8-1.3c11.1-6.6,22.6-12.7,33.3-19.8   c55.7-37.2,108.7-77.8,157.1-124.3c0.7-0.7,1.5-1.2,2.7-2.2c-1.6-0.4-2.4-0.6-3.3-0.8c-5.7-1.2-10.4-4-14.3-8.3   c-4.9-5.4-5.9-12.4-2-18.6c2.7-4.2,5.8-8.4,9.5-11.8c20.6-18.5,43.7-33.4,69.4-44c4.6-1.9,9.7-3,14.7-3.4   c5.7-0.5,9.9,2.9,12.9,7.6c1.5,2.3,1.2,4.8-0.3,6.9c-3,4.2-6,8.4-9.4,12.2c-10.1,11.2-20.5,22.3-30.7,33.4c-0.5,0.6-1,1.1-2,2.3   c3.1-1,5.6-1.8,8-2.7c32.1-11.4,64-23,94.9-37.2c9-4.1,17.6-8.9,25.3-15.2c4.8-4,10.4-7.1,15.8-10.3c4.9-2.9,13.5,1.3,14.6,6.9   c0.2,1-0.2,2.3-0.8,3.1c-2.2,3-4.3,6.2-7,8.8c-14.8,14.3-29.5,28.6-44.6,42.5c-29.7,27.3-60.1,53.7-87.8,83   c-9.5,10-18.1,20.8-27.1,31.3c-0.7,0.8-1.2,1.7-1.8,2.5C596.6,528.8,596.8,529,597,529.1z M754.9,609.2c-0.1-0.2-0.1-0.5-0.2-0.7   c-0.6-0.1-1.2-0.2-1.8-0.2c-16.5-0.2-33-0.8-49.5-0.6c-19.5,0.2-38.1,4.6-55.7,13.2c-5.8,2.8-11.3,6-15.5,11   c-1.6,2-2.7,4.4-3.7,6.8c-0.7,1.8-0.1,3.3,2.1,3.6c4,0.7,8.1,1.7,12.1,2c11.3,0.6,22.3-1.4,33.1-4.3c19.3-5.1,37.7-12.7,56.1-20.4   C739.7,616.3,747.3,612.7,754.9,609.2z M630.4,369.1c-0.1-0.2-0.3-0.4-0.4-0.6c-0.7,0.3-1.4,0.5-2.1,0.9   c-22.6,11.3-43.2,25.5-61.7,42.6c-3.4,3.1-6.1,6.9-8.8,10.6c-1.1,1.4-1.4,3.4-2.1,5.2c0.8,0.2,1.1,0.3,1.3,0.2   c7-1.2,13.9-2.4,20.9-3.7c0.8-0.1,1.5-0.9,2.1-1.5c10.6-10.9,21.3-21.7,31.8-32.8C617.7,383.3,624,376.1,630.4,369.1z"></path>		<path class="st0" d="M835,294c6.1,0,14.3,7.3,14.4,12.1c0,1.7-0.9,3.9-2.1,5.1c-2.6,2.5-5.6,4.8-8.6,6.8   c-15.6,10.4-31.4,20.6-47,31c-2,1.3-3.8,1.6-5.5,0.2c-2.2-1.9-4.3-4-6.2-6.2c-1.1-1.3-0.7-2.8,0.7-4.1   c15.8-14.9,32.1-29.3,49.6-42.3C832,295.3,834,294.5,835,294z"></path>	</g>	<g>		<path class="st0" d="M88.2,743.8h27.4v2.9h-12.1v28.5h-3.2v-28.5H88.2L88.2,743.8L88.2,743.8z"></path>		<path class="st0" d="M121.9,775.1v-33.6h3v14.8c1-1.1,2.1-2,3.4-2.6c1.6-0.8,3.2-1.2,4.8-1.2c2.6,0,4.7,0.7,6.3,2.2   c1.6,1.4,2.4,3.3,2.4,5.5v15h-3v-15c0-1.4-0.6-2.6-1.7-3.6c-1.1-1-2.6-1.5-4.3-1.5c-1.6,0-3.2,0.4-4.7,1.3   c-1.2,0.6-2.3,1.5-3.3,2.6v16.1L121.9,775.1L121.9,775.1z"></path>		<path class="st0" d="M171.3,771.6c-2.8,2.8-6.4,4.2-10.7,4.2c-3.5,0-6.3-1.1-8.4-3.4c-2.1-2.1-3.1-4.8-3.1-8   c0-3.4,1.1-6.2,3.4-8.5c2.2-2.3,5-3.5,8.3-3.5c2.9,0,5.4,0.8,7.4,2.5c2.4,2,3.6,4.7,3.7,8.2v0.5l-0.1,0.5h-19.8v0.1   c0,2.5,0.8,4.6,2.3,6.2c1.6,1.7,3.8,2.6,6.5,2.6c3.5,0,6.2-1.2,8.4-3.5L171.3,771.6z M155.2,756.9c-1.4,1.2-2.4,2.9-2.9,4.9h16.3   c-0.1-2.2-0.9-3.9-2.6-5.2c-1.5-1.2-3.3-1.7-5.3-1.7C158.6,754.9,156.8,755.6,155.2,756.9z"></path>		<path class="st0" d="M206.3,757.5c-0.9-0.6-2-1.2-3.4-1.7c-1.7-0.6-3.4-0.9-5-0.9s-2.9,0.3-4,0.9c-1.3,0.7-1.9,1.7-1.9,2.9   c0,1.3,0.8,2.2,2.3,2.7c0.6,0.2,1.4,0.4,2.3,0.5l1.2,0.1l1.2,0l0.7,0l0.8,0c0.6,0,1.2,0.1,1.7,0.1c1.3,0.2,2.4,0.5,3.4,0.8   c2.5,1,3.7,2.8,3.7,5.4c0,2.4-1,4.2-3.1,5.5c-1.9,1.2-4.3,1.8-7.3,1.8c-2.3,0-4.5-0.4-6.5-1.2c-1.4-0.5-2.8-1.3-4.2-2.3l1.2-2.3   c0.6,0.5,1.2,0.8,1.7,1.1c0.7,0.4,1.4,0.8,2.1,1.1c1.8,0.7,3.6,1.1,5.6,1.1c2.1,0,3.9-0.4,5.2-1.2c1.5-0.8,2.2-2,2.2-3.5   c0-1.5-0.8-2.6-2.5-3.2c-0.7-0.3-1.5-0.4-2.4-0.5l-1.2-0.1l-1.2,0l-1.7-0.1l-1.7-0.2c-1.3-0.2-2.3-0.4-3.2-0.8   c-2.1-0.9-3.2-2.5-3.2-4.8c0-2.3,1-4,2.9-5.2c1.6-1,3.6-1.4,5.9-1.4c1.9,0,3.8,0.3,5.8,1c1.6,0.5,2.8,1.2,3.8,1.9L206.3,757.5z"></path>		<path class="st0" d="M213.2,753.1h4.6v-6.8h3v6.8h7.3v2.3h-7.3v14.3c0,2.4,1.2,3.5,3.5,3.5c1.7,0,3-0.3,4-1l0.4,2.3   c-1.2,0.9-2.8,1.3-5,1.3c-1.6,0-2.9-0.5-3.9-1.3c-1.3-1.1-2-2.7-2-4.8v-14.3h-4.6L213.2,753.1L213.2,753.1z"></path>		<path class="st0" d="M254.9,753.1l-15.7,32.2h-3.1l5.4-10.8l-9.6-21.4h3.4l7.8,18.1h0.1l8.6-18.1L254.9,753.1L254.9,753.1z"></path>		<path class="st0" d="M261.7,775.1v-33.6h3v33.6H261.7z"></path>		<path class="st0" d="M274.5,743c0.4-0.4,0.9-0.6,1.4-0.6c0.6,0,1.1,0.2,1.5,0.6c0.4,0.3,0.6,0.8,0.6,1.3c0,0.5-0.2,1-0.6,1.3   c-0.4,0.3-0.9,0.5-1.5,0.5c-0.6,0-1.1-0.2-1.4-0.6c-0.4-0.3-0.6-0.8-0.6-1.3C273.9,743.8,274.1,743.4,274.5,743z M274.5,775.1v-22   h3v22H274.5z"></path>		<path class="st0" d="M302.9,757.5c-0.9-0.6-2-1.2-3.4-1.7c-1.7-0.6-3.4-0.9-5-0.9s-2.9,0.3-4,0.9c-1.3,0.7-1.9,1.7-1.9,2.9   c0,1.3,0.8,2.2,2.3,2.7c0.6,0.2,1.4,0.4,2.3,0.5l1.2,0.1l1.2,0l0.7,0l0.8,0c0.6,0,1.2,0.1,1.7,0.1c1.3,0.2,2.4,0.5,3.4,0.8   c2.5,1,3.7,2.8,3.7,5.4c0,2.4-1,4.2-3.1,5.5c-1.9,1.2-4.3,1.8-7.3,1.8c-2.3,0-4.5-0.4-6.5-1.2c-1.4-0.5-2.8-1.3-4.2-2.3l1.2-2.3   c0.6,0.5,1.2,0.8,1.7,1.1c0.7,0.4,1.4,0.8,2.1,1.1c1.8,0.7,3.6,1.1,5.6,1.1c2.1,0,3.9-0.4,5.2-1.2c1.5-0.8,2.2-2,2.2-3.5   c0-1.5-0.8-2.6-2.5-3.2c-0.7-0.3-1.5-0.4-2.4-0.5l-1.2-0.1l-1.2,0l-1.7-0.1l-1.7-0.2c-1.3-0.2-2.3-0.4-3.2-0.8   c-2.1-0.9-3.2-2.5-3.2-4.8c0-2.3,1-4,2.9-5.2c1.6-1,3.6-1.4,5.9-1.4c1.9,0,3.8,0.3,5.8,1c1.6,0.5,2.8,1.2,3.8,1.9L302.9,757.5z"></path>		<path class="st0" d="M313.1,775.1v-33.6h3v14.8c1-1.1,2.1-2,3.4-2.6c1.6-0.8,3.2-1.2,4.8-1.2c2.6,0,4.7,0.7,6.3,2.2   c1.6,1.4,2.4,3.3,2.4,5.5v15h-3v-15c0-1.4-0.6-2.6-1.7-3.6c-1.1-1-2.6-1.5-4.3-1.5c-1.6,0-3.2,0.4-4.7,1.3   c-1.2,0.6-2.3,1.5-3.3,2.6v16.1L313.1,775.1L313.1,775.1z"></path>		<path class="st0" d="M383.2,753.1l-7.3,22h-3.3l-5.8-17.8h-0.2l-5.7,17.8h-3.3l-7.3-22h3.2l5.7,18.2h0.2l5.9-18.2h3.1l5.9,18.2   h0.2l5.5-18.2H383.2z"></path>		<path class="st0" d="M410.3,771.6c-2.8,2.8-6.4,4.2-10.7,4.2c-3.5,0-6.3-1.1-8.4-3.4c-2.1-2.1-3.1-4.8-3.1-8   c0-3.4,1.1-6.2,3.4-8.5c2.2-2.3,5-3.5,8.3-3.5c2.9,0,5.4,0.8,7.4,2.5c2.4,2,3.6,4.7,3.7,8.2v0.5l-0.1,0.5h-19.8v0.1   c0,2.5,0.8,4.6,2.3,6.2c1.6,1.7,3.8,2.6,6.5,2.6c3.5,0,6.2-1.2,8.4-3.5L410.3,771.6z M394.3,756.9c-1.4,1.2-2.4,2.9-2.9,4.9h16.3   c-0.1-2.2-0.9-3.9-2.6-5.2c-1.5-1.2-3.3-1.7-5.3-1.7C397.6,754.9,395.8,755.6,394.3,756.9z"></path>		<path class="st0" d="M436.7,775.1c-0.2-1-0.3-2.2-0.3-3.4c-0.8,1-1.8,1.9-3.1,2.6c-1.7,1-3.5,1.4-5.3,1.4c-3.2,0-5.8-1.1-7.9-3.2   c-2.2-2.2-3.4-5-3.4-8.5c0-3.4,1.1-6.2,3.4-8.4c2.1-2.1,4.8-3.2,8-3.2c2.9,0,5.6,1.2,8,3.5v-14.5h3v28.3c0,2.1,0.1,3.9,0.4,5.3   L436.7,775.1L436.7,775.1z M422.4,757.5c-1.6,1.7-2.4,3.9-2.4,6.5c0,2.7,0.8,4.9,2.4,6.6c1.6,1.7,3.5,2.5,5.9,2.5   c1.8,0,3.5-0.5,5.1-1.5c0.6-0.3,1.2-0.8,1.7-1.2c0.4-0.3,0.7-0.7,1-1v-10.7c-2.5-2.5-5.1-3.7-7.8-3.7   C425.9,755.1,424,755.9,422.4,757.5z"></path>		<path class="st0" d="M466.7,775.1c-0.2-1-0.3-2.2-0.3-3.4c-0.8,1-1.8,1.9-3.1,2.6c-1.7,1-3.5,1.4-5.3,1.4c-3.2,0-5.8-1.1-7.9-3.2   c-2.2-2.2-3.4-5-3.4-8.5c0-3.4,1.1-6.2,3.4-8.4c2.1-2.1,4.8-3.2,8-3.2c2.9,0,5.6,1.2,8,3.5v-14.5h3v28.3c0,2.1,0.1,3.9,0.4,5.3   L466.7,775.1L466.7,775.1z M452.4,757.5c-1.6,1.7-2.4,3.9-2.4,6.5c0,2.7,0.8,4.9,2.4,6.6c1.6,1.7,3.5,2.5,5.9,2.5   c1.8,0,3.5-0.5,5.1-1.5c0.6-0.3,1.2-0.8,1.7-1.2c0.4-0.3,0.7-0.7,1-1v-10.7c-2.5-2.5-5.1-3.7-7.8-3.7   C456,755.1,454,755.9,452.4,757.5z"></path>		<path class="st0" d="M478.5,743c0.4-0.4,0.9-0.6,1.4-0.6c0.6,0,1.1,0.2,1.5,0.6c0.4,0.3,0.6,0.8,0.6,1.3c0,0.5-0.2,1-0.6,1.3   c-0.4,0.3-0.9,0.5-1.5,0.5c-0.6,0-1.1-0.2-1.4-0.6c-0.4-0.3-0.6-0.8-0.6-1.3C477.9,743.8,478.1,743.4,478.5,743z M478.5,775.1v-22   h3v22H478.5z"></path>		<path class="st0" d="M490.9,775.1v-16.8c0-1.8-0.2-3.5-0.7-5.2h2.7c0.3,1,0.6,2.2,0.6,3.5c2.6-2.8,5.5-4.1,8.8-4.1   c2.5,0,4.5,0.7,6.1,2.2s2.4,3.3,2.4,5.5v15h-3v-15c0-1.4-0.5-2.6-1.6-3.6c-1.1-1-2.6-1.5-4.3-1.5c-1.6,0-3.2,0.4-4.7,1.2   c-1.2,0.7-2.3,1.6-3.4,2.7v16.1L490.9,775.1L490.9,775.1z"></path>		<path class="st0" d="M537.5,771.9c-2.5,2.6-5.2,3.8-8.3,3.8c-3.1,0-5.7-1.1-7.8-3.2c-2.2-2.2-3.3-5-3.3-8.4c0-3.5,1.1-6.3,3.4-8.5   c2.2-2.1,4.9-3.2,8.1-3.2c1.8,0,3.5,0.5,5.1,1.5c1.2,0.7,2.2,1.6,3,2.6c0-1.3,0.2-2.5,0.5-3.5h2.8c-0.4,1.4-0.6,3.2-0.6,5.3v18.4   c0,2.7-0.9,4.9-2.7,6.6c-2,1.8-4.7,2.7-8.2,2.7c-4.3,0-7.6-1.3-10-3.9l1.8-1.8c1.9,2.1,4.7,3.2,8.2,3.2c2.5,0,4.5-0.7,5.9-2   c1.3-1.2,2-2.9,2-4.8V771.9z M537.5,769.5v-10.7c-0.3-0.3-0.6-0.7-1-1c-0.5-0.5-1.1-0.9-1.6-1.2c-1.6-1-3.2-1.5-5-1.5   c-2.4,0-4.3,0.8-5.9,2.5c-1.7,1.7-2.5,3.9-2.5,6.6c0,2.7,0.8,4.8,2.3,6.5c1.5,1.6,3.4,2.5,5.7,2.5   C532.4,773.1,535,771.9,537.5,769.5z"></path>		<path class="st0" d="M560.8,785.3v-26.8c0-2.1-0.2-3.9-0.6-5.4h2.8c0.3,1.1,0.5,2.2,0.5,3.4c2.4-2.7,5.2-4,8.5-4   c3.1,0,5.7,1.1,7.8,3.2c2.2,2.2,3.3,5,3.3,8.5c0,3.4-1.1,6.2-3.4,8.5c-2.2,2.1-4.9,3.2-8.1,3.2c-3,0-5.7-1.3-7.9-3.8v13.3   L560.8,785.3L560.8,785.3z M563.8,769.5c0.9,1,1.9,1.8,3.1,2.5c1.5,0.8,3,1.2,4.5,1.2c2.4,0,4.4-0.8,6-2.5   c1.7-1.7,2.5-3.9,2.5-6.6s-0.8-4.9-2.3-6.6c-1.5-1.7-3.4-2.5-5.7-2.5c-1.6,0-3.1,0.4-4.7,1.2c-1.2,0.6-2.3,1.5-3.4,2.5V769.5z"></path>		<path class="st0" d="M591.2,775.1v-33.6h3v33.6H591.2z"></path>		<path class="st0" d="M603.7,755.3c1.2-0.7,2.5-1.4,4-1.9c1.9-0.6,3.9-1,5.9-1c2.7,0,4.9,0.5,6.7,1.4c2.1,1.1,3.1,2.8,3.1,5.1v12.1   c0,0.7,0.1,1.4,0.1,2c0.1,0.8,0.3,1.5,0.6,2h-3c-0.2-0.4-0.4-0.9-0.5-1.6c-0.1-0.5-0.2-1.1-0.2-1.8c-1.1,1-2.3,1.9-3.7,2.5   c-1.9,0.9-3.9,1.3-6.1,1.3c-2.7,0-4.8-0.7-6.5-2.2c-1.5-1.4-2.3-3.2-2.3-5.4c0-2.1,0.9-3.8,2.6-5.2c1.8-1.4,4.3-2.2,7.5-2.2   c1.7,0,3.2,0.2,4.7,0.6c1.7,0.5,3,1.2,3.8,2.2v-3.7c0-1.6-0.7-2.8-2.2-3.7c-1.2-0.7-2.8-1.1-4.8-1.1c-1.7,0-3.4,0.3-5.1,1   c-1.4,0.5-2.6,1.1-3.6,1.8L603.7,755.3z M617.6,771.4c0.7-0.4,1.4-0.9,2-1.3c0.5-0.4,0.8-0.7,0.9-0.9V766c-1.5-2-4.2-2.9-8.1-2.9   c-2.5,0-4.4,0.5-5.7,1.4c-1.2,0.9-1.8,2.1-1.8,3.5c0,1.4,0.5,2.6,1.6,3.5c1.2,1,2.8,1.5,4.8,1.5   C613.4,773.1,615.5,772.5,617.6,771.4z"></path>		<path class="st0" d="M632.6,775.1v-16.8c0-1.8-0.2-3.5-0.7-5.2h2.7c0.3,1,0.6,2.2,0.6,3.5c2.6-2.8,5.5-4.1,8.8-4.1   c2.5,0,4.5,0.7,6.1,2.2s2.4,3.3,2.4,5.5v15h-3v-15c0-1.4-0.5-2.6-1.6-3.6c-1.1-1-2.6-1.5-4.3-1.5c-1.6,0-3.2,0.4-4.7,1.2   c-1.2,0.7-2.3,1.6-3.4,2.7v16.1L632.6,775.1L632.6,775.1z"></path>		<path class="st0" d="M661.7,775.1v-16.8c0-1.8-0.2-3.5-0.7-5.2h2.7c0.3,1,0.6,2.2,0.6,3.5c2.6-2.8,5.5-4.1,8.8-4.1   c2.5,0,4.5,0.7,6.1,2.2s2.4,3.3,2.4,5.5v15h-3v-15c0-1.4-0.5-2.6-1.6-3.6c-1.1-1-2.6-1.5-4.3-1.5c-1.6,0-3.2,0.4-4.7,1.2   c-1.2,0.7-2.3,1.6-3.4,2.7v16.1L661.7,775.1L661.7,775.1z"></path>		<path class="st0" d="M711.2,771.6c-2.8,2.8-6.4,4.2-10.7,4.2c-3.5,0-6.3-1.1-8.4-3.4c-2.1-2.1-3.1-4.8-3.1-8   c0-3.4,1.1-6.2,3.4-8.5c2.2-2.3,5-3.5,8.3-3.5c2.9,0,5.4,0.8,7.4,2.5c2.4,2,3.6,4.7,3.7,8.2v0.5l-0.1,0.5H692v0.1   c0,2.5,0.8,4.6,2.3,6.2c1.6,1.7,3.8,2.6,6.5,2.6c3.5,0,6.2-1.2,8.4-3.5L711.2,771.6z M695.1,756.9c-1.4,1.2-2.4,2.9-2.9,4.9h16.3   c-0.1-2.2-0.9-3.9-2.6-5.2c-1.5-1.2-3.3-1.7-5.3-1.7C698.5,754.9,696.7,755.6,695.1,756.9z"></path>		<path class="st0" d="M719.3,775.1v-16.8c0-1.8-0.2-3.6-0.7-5.2h2.8c0.3,1.1,0.6,2.4,0.6,3.9c2.1-3,4.3-4.5,6.9-4.5   c1.7,0,2.8,0.4,3.5,1.3l-1,2.6c-0.3-0.3-0.8-0.6-1.4-0.8c-0.6-0.2-1.1-0.2-1.7-0.2c-1.2,0-2.3,0.5-3.5,1.4   c-0.8,0.6-1.7,1.6-2.5,2.8v15.5L719.3,775.1L719.3,775.1z"></path>		<path class="st0" d="M750.5,755.8c2.3-2.2,5.1-3.4,8.4-3.4s6.2,1.1,8.5,3.4c2.3,2.2,3.4,5,3.4,8.2c0,3.3-1.1,6.1-3.4,8.3   c-2.3,2.3-5.1,3.4-8.5,3.4s-6.2-1.1-8.4-3.4c-2.3-2.2-3.4-5-3.4-8.3C747.1,760.8,748.2,758.1,750.5,755.8z M752.7,770.5   c1.7,1.8,3.8,2.7,6.3,2.7c2.5,0,4.6-0.9,6.3-2.7c1.7-1.8,2.5-3.9,2.5-6.5c0-2.5-0.8-4.6-2.5-6.4c-1.7-1.8-3.8-2.7-6.3-2.7   s-4.6,0.9-6.3,2.7c-1.6,1.8-2.4,3.9-2.4,6.4C750.2,766.6,751,768.7,752.7,770.5z"></path>		<path class="st0" d="M780,753.1v-4.8c0-2.5,0.7-4.3,2.2-5.7c1.2-1.1,2.7-1.6,4.5-1.6c2.3,0,4,0.6,5.2,1.7l-0.7,2.4   c-1-1-2.3-1.4-4-1.4c-1.2,0-2.2,0.3-3,1.1c-0.8,0.8-1.2,2-1.2,3.5v4.8h7.1v2.3H783v19.7h-3v-19.7h-4.5v-2.3L780,753.1L780,753.1z"></path>		<path class="st0" d="M834.4,743.8l-14.6,31.3h-3.2l-14.6-31.3h3.7l12.5,27.4h0.3l12.4-27.4H834.4z"></path>		<path class="st0" d="M841,743c0.4-0.4,0.9-0.6,1.4-0.6c0.6,0,1.1,0.2,1.5,0.6c0.4,0.3,0.6,0.8,0.6,1.3c0,0.5-0.2,1-0.6,1.3   c-0.4,0.3-0.9,0.5-1.5,0.5c-0.6,0-1.1-0.2-1.4-0.6c-0.4-0.3-0.6-0.8-0.6-1.3C840.4,743.8,840.6,743.4,841,743z M841,775.1v-22h3   v22H841z"></path>		<path class="st0" d="M873.7,771.6c-2.8,2.8-6.4,4.2-10.7,4.2c-3.5,0-6.3-1.1-8.4-3.4c-2.1-2.1-3.1-4.8-3.1-8   c0-3.4,1.1-6.2,3.4-8.5c2.2-2.3,5-3.5,8.3-3.5c2.9,0,5.4,0.8,7.4,2.5c2.4,2,3.6,4.7,3.7,8.2v0.5l-0.1,0.5h-19.8v0.1   c0,2.5,0.8,4.6,2.3,6.2c1.6,1.7,3.8,2.6,6.5,2.6c3.5,0,6.2-1.2,8.4-3.5L873.7,771.6z M857.7,756.9c-1.4,1.2-2.4,2.9-2.9,4.9H871   c-0.1-2.2-0.9-3.9-2.6-5.2c-1.5-1.2-3.3-1.7-5.3-1.7C861,754.9,859.2,755.6,857.7,756.9z"></path>		<path class="st0" d="M878.6,753.1h4.6v-6.8h3v6.8h7.3v2.3h-7.3v14.3c0,2.4,1.2,3.5,3.5,3.5c1.7,0,3-0.3,4-1l0.4,2.3   c-1.2,0.9-2.8,1.3-5,1.3c-1.6,0-2.9-0.5-3.9-1.3c-1.3-1.1-2-2.7-2-4.8v-14.3h-4.6L878.6,753.1L878.6,753.1z"></path>		<path class="st0" d="M900.4,775.1v-16.8c0-1.8-0.2-3.5-0.7-5.2h2.7c0.3,1,0.6,2.2,0.6,3.5c2.6-2.8,5.5-4.1,8.8-4.1   c2.5,0,4.5,0.7,6.1,2.2s2.4,3.3,2.4,5.5v15h-3v-15c0-1.4-0.5-2.6-1.6-3.6c-1.1-1-2.6-1.5-4.3-1.5c-1.6,0-3.2,0.4-4.7,1.2   c-1.2,0.7-2.3,1.6-3.4,2.7v16.1L900.4,775.1L900.4,775.1z"></path>		<path class="st0" d="M929.2,755.3c1.2-0.7,2.5-1.4,4-1.9c1.9-0.6,3.9-1,5.9-1c2.7,0,4.9,0.5,6.7,1.4c2.1,1.1,3.1,2.8,3.1,5.1v12.1   c0,0.7,0.1,1.4,0.1,2c0.1,0.8,0.3,1.5,0.6,2h-3c-0.2-0.4-0.4-0.9-0.5-1.6c-0.1-0.5-0.2-1.1-0.2-1.8c-1.1,1-2.3,1.9-3.7,2.5   c-1.9,0.9-3.9,1.3-6.1,1.3c-2.7,0-4.8-0.7-6.5-2.2c-1.5-1.4-2.3-3.2-2.3-5.4c0-2.1,0.9-3.8,2.6-5.2c1.8-1.4,4.3-2.2,7.5-2.2   c1.7,0,3.2,0.2,4.7,0.6c1.7,0.5,3,1.2,3.8,2.2v-3.7c0-1.6-0.7-2.8-2.2-3.7c-1.2-0.7-2.8-1.1-4.8-1.1c-1.7,0-3.4,0.3-5.1,1   c-1.4,0.5-2.6,1.1-3.6,1.8L929.2,755.3z M943,771.4c0.7-0.4,1.4-0.9,2-1.3c0.5-0.4,0.8-0.7,0.9-0.9V766c-1.5-2-4.2-2.9-8.1-2.9   c-2.5,0-4.4,0.5-5.7,1.4c-1.2,0.9-1.8,2.1-1.8,3.5c0,1.4,0.5,2.6,1.6,3.5c1.2,1,2.8,1.5,4.8,1.5   C938.8,773.1,940.9,772.5,943,771.4z"></path>		<path class="st0" d="M958.1,775.1v-16.8c0-1.8-0.2-3.5-0.7-5.2h2.7c0.4,1.2,0.6,2.3,0.6,3.5c1.1-1.2,2.1-2.1,3.2-2.8   c1.4-0.9,3-1.3,4.7-1.3c3.4,0,5.8,1.5,7.2,4.5c2.2-3,4.9-4.5,8.1-4.5c2.2,0,4.1,0.7,5.6,2.2s2.2,3.3,2.2,5.5v15h-3v-15   c0-1.4-0.5-2.6-1.4-3.6c-1-1-2.3-1.5-3.8-1.5c-1.4,0-2.8,0.4-4.1,1.3c-1,0.6-2,1.5-3,2.6v16.1h-3v-16c-0.2-1.2-0.8-2.1-1.6-2.8   c-1-0.8-2.2-1.2-3.6-1.2c-1.4,0-2.8,0.4-4.2,1.3c-1,0.6-2,1.5-3,2.6v16.1L958.1,775.1L958.1,775.1z"></path>	</g></g></svg>